<svg xmlns="http://www.w3.org/2000/svg" viewBox="0 0 329.55 329.55"><defs><style>.cls-1{fill:none;}.cls-2{fill:#fff;}.cls-3{fill:#ed1c24;}</style></defs><title>error windows_1</title><g id="Layer_2" data-name="Layer 2"><g id="Layer_1-2" data-name="Layer 1"><path class="cls-1" d="M232.77,136a12.88,12.88,0,0,0-3.76-8.73l0,0a12.83,12.83,0,0,0-9.13-3.79h-.05a12.83,12.83,0,0,0-9.15,3.85L193.27,145c1-.45,2-.89,3-1.31A96.71,96.71,0,0,1,232.77,136Z"/><path class="cls-1" d="M136.88,230.67H113.73a15.38,15.38,0,0,1-15.19-15.55V114.43a15.38,15.38,0,0,1,15.19-15.55h130a12.72,12.72,0,1,0,0-25.43h-130a40.93,40.93,0,0,0-41,41V215.12a40.93,40.93,0,0,0,41,41h25.82a97.07,97.07,0,0,1-2.7-22.87C136.85,232.37,136.86,231.52,136.88,230.67Z"/><path class="cls-1" d="M188.35,147.41a3.76,3.76,0,0,1-1.8-1L167.1,127.32a13,13,0,0,0-18.18.09l0,0a12.9,12.9,0,0,0,.06,18.33l17.68,17.44a97.23,97.23,0,0,1,13.09-10.6A95.55,95.55,0,0,1,188.35,147.41Z"/><path class="cls-2" d="M179.71,313.85A97.34,97.34,0,0,1,165.33,302a97.34,97.34,0,0,1-20.84-30.9,96.92,96.92,0,0,1-4.94-15H113.73a40.93,40.93,0,0,1-41-41V114.43a40.93,40.93,0,0,1,41-41h130a12.72,12.72,0,1,1,0,25.43h-130a15.38,15.38,0,0,0-15.19,15.55V215.12a15.38,15.38,0,0,0,15.19,15.55h23.15a96.72,96.72,0,0,1,16.58-51.81,97.94,97.94,0,0,1,11.87-14.39l1.29-1.26-17.68-17.44a12.9,12.9,0,0,1-.06-18.33l0,0a13,13,0,0,1,18.18-.09l19.45,19.11a3.76,3.76,0,0,0,1.8,1q2.43-1.31,4.92-2.46l17.39-17.64a12.83,12.83,0,0,1,9.15-3.85h.05a12.83,12.83,0,0,1,9.13,3.79l0,0a12.88,12.88,0,0,1,3.76,8.73h1.31a97.16,97.16,0,0,1,68.75,28.48,97.53,97.53,0,0,1,20.84,30.91c.71,1.69,1.38,3.4,2,5.12A164.61,164.61,0,1,0,202.49,325.21c-2.11-.72-4.19-1.52-6.26-2.4A97,97,0,0,1,179.71,313.85Z"/><path class="cls-3" d="M233.58,149.4A84.44,84.44,0,1,0,318,233.84,84.44,84.44,0,0,0,233.58,149.4Zm30.83,123.26a2.1,2.1,0,0,1-1.86,1.14H260a2.1,2.1,0,0,1-1.68-.85l-24.83-33.87L208.67,273a2.12,2.12,0,0,1-1.69.85h-2.54a2.08,2.08,0,0,1-1.68-3.32l26.88-36.62-26.88-36.73a2.08,2.08,0,0,1,1.68-3.31H207a2.09,2.09,0,0,1,1.69.85l24.82,33.86,24.83-33.86a2.07,2.07,0,0,1,1.68-.85h2.55a2.08,2.08,0,0,1,1.68,3.31l-26.88,36.73,26.88,36.62A2.12,2.12,0,0,1,264.41,272.66Z"/><rect class="cls-2" x="224.6" y="177.94" width="23" height="110.98" rx="11.5" ry="11.5" transform="translate(185.22 -94.66) rotate(36.51)"/><rect class="cls-2" x="224.6" y="177.94" width="23" height="110.98" rx="11.5" ry="11.5" transform="translate(564.75 280.56) rotate(143.49)"/></g></g></svg>