<svg xmlns="http://www.w3.org/2000/svg" xmlns:xlink="http://www.w3.org/1999/xlink" viewBox="0 0 329.55 329.55"><defs><style>.cls-1{fill:none;}.cls-2{fill:#fff;}.cls-3{fill:url(#linear-gradient);}</style><linearGradient id="linear-gradient" x1="149.66" y1="233.58" x2="319.81" y2="233.58" gradientUnits="userSpaceOnUse"><stop offset="0" stop-color="#4bc0af"/><stop offset="1" stop-color="#00aeef"/></linearGradient></defs><title>new</title><g id="Layer_2" data-name="Layer 2"><g id="Layer_1-2" data-name="Layer 1"><path class="cls-1" d="M232.77,136a12.88,12.88,0,0,0-3.76-8.73l0,0a12.83,12.83,0,0,0-9.13-3.79h-.05a12.83,12.83,0,0,0-9.15,3.85L193.27,145c1-.45,2-.89,3-1.31A96.71,96.71,0,0,1,232.77,136Z"/><path class="cls-1" d="M136.88,230.67H113.73a15.38,15.38,0,0,1-15.19-15.55V114.43a15.38,15.38,0,0,1,15.19-15.55h130a12.72,12.72,0,1,0,0-25.43h-130a40.93,40.93,0,0,0-41,41V215.12a40.93,40.93,0,0,0,41,41h25.82a97.07,97.07,0,0,1-2.7-22.87C136.85,232.37,136.86,231.52,136.88,230.67Z"/><path class="cls-1" d="M188.35,147.41a3.76,3.76,0,0,1-1.8-1L167.1,127.32a13,13,0,0,0-18.18.09l0,0a12.9,12.9,0,0,0,.06,18.33l17.68,17.44a97.23,97.23,0,0,1,13.09-10.6A95.55,95.55,0,0,1,188.35,147.41Z"/><path class="cls-2" d="M179.71,313.85A97.34,97.34,0,0,1,165.33,302a97.34,97.34,0,0,1-20.84-30.9,96.92,96.92,0,0,1-4.94-15H113.73a40.93,40.93,0,0,1-41-41V114.43a40.93,40.93,0,0,1,41-41h130a12.72,12.72,0,1,1,0,25.43h-130a15.38,15.38,0,0,0-15.19,15.55V215.12a15.38,15.38,0,0,0,15.19,15.55h23.15a96.72,96.72,0,0,1,16.58-51.81,97.94,97.94,0,0,1,11.87-14.39l1.29-1.26-17.68-17.44a12.9,12.9,0,0,1-.06-18.33l0,0a13,13,0,0,1,18.18-.09l19.45,19.11a3.76,3.76,0,0,0,1.8,1q2.43-1.31,4.92-2.46l17.39-17.64a12.83,12.83,0,0,1,9.15-3.85h.05a12.83,12.83,0,0,1,9.13,3.79l0,0a12.88,12.88,0,0,1,3.76,8.73h1.31a97.16,97.16,0,0,1,68.75,28.48,97.53,97.53,0,0,1,20.84,30.91c.71,1.69,1.38,3.4,2,5.12A164.61,164.61,0,1,0,202.49,325.21c-2.11-.72-4.19-1.52-6.26-2.4A97,97,0,0,1,179.71,313.85Z"/><path class="cls-3" d="M234.73,149.6c-47,0-85.07,37.6-85.07,84s38.09,84,85.07,84,85.08-37.6,85.08-84S281.72,149.6,234.73,149.6Zm0,137.06c-28.91,0-52.45-22.93-52.45-51.18A51.1,51.1,0,0,1,206.87,192H195.81l-.39,0a3,3,0,0,1,.39-5.9h21a3,3,0,0,1,3,3v20.8a3,3,0,0,1-6-.09V194.89a45.28,45.28,0,0,0-25.53,40.59c0,25,20.75,45.26,46.46,45.26a3,3,0,0,1,3.05,2.64c0,.13,0,.26,0,.38A3,3,0,0,1,234.73,286.66Zm39-8.88a3,3,0,0,1,3.05,2.64,2.54,2.54,0,0,1,0,.39,3,3,0,0,1-3.06,2.89h-21a3,3,0,0,1-3-3V260a3,3,0,0,1,6,.08v14.79a45.27,45.27,0,0,0,25.48-40.54c0-25-20.75-45.26-46.47-45.26h-.08a3,3,0,1,1,.08-5.92c28.92,0,52.46,22.93,52.46,51.18a51.11,51.11,0,0,1-24.54,43.5Z"/><path class="cls-2" d="M287.19,234.28c0-28.25-23.54-51.18-52.46-51.18a3,3,0,1,0-.08,5.92h.08c25.72,0,46.47,20.25,46.47,45.26a45.27,45.27,0,0,1-25.48,40.54V260a3,3,0,0,0-6-.08v20.79a3,3,0,0,0,3,3h21a3,3,0,0,0,3.06-2.89,2.54,2.54,0,0,0,0-.39,3,3,0,0,0-3.05-2.64H262.65A51.11,51.11,0,0,0,287.19,234.28Z"/><path class="cls-2" d="M237.8,283.76c0-.13,0-.25,0-.38a3,3,0,0,0-3.05-2.64c-25.71,0-46.46-20.25-46.46-45.26a45.28,45.28,0,0,1,25.53-40.59v14.84a3,3,0,0,0,6,.09V189a3,3,0,0,0-3-3h-21a3,3,0,0,0-.39,5.9l.39,0h11.06a51.1,51.1,0,0,0-24.59,43.5c0,28.25,23.54,51.18,52.45,51.18A3,3,0,0,0,237.8,283.76Z"/></g></g></svg>