<svg xmlns="http://www.w3.org/2000/svg" xmlns:xlink="http://www.w3.org/1999/xlink" viewBox="0 0 329.55 329.55"><defs><style>.cls-1{fill:url(#linear-gradient);}.cls-2{fill:none;}.cls-3{fill:#fff;}</style><linearGradient id="linear-gradient" x1="147.66" y1="233.58" x2="317.81" y2="233.58" gradientUnits="userSpaceOnUse"><stop offset="0" stop-color="#4bc0af"/><stop offset="1" stop-color="#00aeef"/></linearGradient></defs><title>new2</title><g id="Layer_2" data-name="Layer 2"><g id="Layer_1-2" data-name="Layer 1"><ellipse class="cls-1" cx="232.73" cy="233.58" rx="85.08" ry="83.98"/><path class="cls-2" d="M232.77,136a12.88,12.88,0,0,0-3.76-8.73l0,0a12.83,12.83,0,0,0-9.13-3.79h-.05a12.83,12.83,0,0,0-9.15,3.85L193.27,145c1-.45,2-.89,3-1.31A96.71,96.71,0,0,1,232.77,136Z"/><path class="cls-2" d="M136.88,230.67H113.73a15.38,15.38,0,0,1-15.19-15.55V114.43a15.38,15.38,0,0,1,15.19-15.55h130a12.72,12.72,0,1,0,0-25.43h-130a40.93,40.93,0,0,0-41,41V215.12a40.93,40.93,0,0,0,41,41h25.82a97.07,97.07,0,0,1-2.7-22.87C136.85,232.37,136.86,231.52,136.88,230.67Z"/><path class="cls-2" d="M188.35,147.41a3.76,3.76,0,0,1-1.8-1L167.1,127.32a13,13,0,0,0-18.18.09l0,0a12.9,12.9,0,0,0,.06,18.33l17.68,17.44a97.23,97.23,0,0,1,13.09-10.6A95.55,95.55,0,0,1,188.35,147.41Z"/><path class="cls-3" d="M179.71,313.85A97.34,97.34,0,0,1,165.33,302a97.34,97.34,0,0,1-20.84-30.9,96.92,96.92,0,0,1-4.94-15H113.73a40.93,40.93,0,0,1-41-41V114.43a40.93,40.93,0,0,1,41-41h130a12.72,12.72,0,1,1,0,25.43h-130a15.38,15.38,0,0,0-15.19,15.55V215.12a15.38,15.38,0,0,0,15.19,15.55h23.15a96.72,96.72,0,0,1,16.58-51.81,97.94,97.94,0,0,1,11.87-14.39l1.29-1.26-17.68-17.44a12.9,12.9,0,0,1-.06-18.33l0,0a13,13,0,0,1,18.18-.09l19.45,19.11a3.76,3.76,0,0,0,1.8,1q2.43-1.31,4.92-2.46l17.39-17.64a12.83,12.83,0,0,1,9.15-3.85h.05a12.83,12.83,0,0,1,9.13,3.79l0,0a12.88,12.88,0,0,1,3.76,8.73h1.31a97.16,97.16,0,0,1,68.75,28.48,97.53,97.53,0,0,1,20.84,30.91c.71,1.69,1.38,3.4,2,5.12A164.61,164.61,0,1,0,202.49,325.21c-2.11-.72-4.19-1.52-6.26-2.4A97,97,0,0,1,179.71,313.85Z"/><path class="cls-3" d="M200.46,243.51a33.78,33.78,0,0,1,32.71-44.27l-10,11.26,9.13,8.06,21.9-24.64L229.52,172l-8.06,9.13,7,6.24A46.29,46.29,0,0,0,200,200.61a45.79,45.79,0,0,0-11.26,46.7Z"/><path class="cls-3" d="M277,221.15l-11.71,3.19a33.72,33.72,0,0,1-8.67,32.71,34.37,34.37,0,0,1-22.21,9.89l9-10.19-9.12-8.07-21.91,24.65L237,295.23,245,286.1l-8.22-7.3A46.4,46.4,0,0,0,265,265.57,45.78,45.78,0,0,0,277,221.15Z"/></g></g></svg>