<svg xmlns="http://www.w3.org/2000/svg" viewBox="0 0 1286 1286"><defs><style>.cls-1{fill:none;}.cls-2{fill:#fff;}.cls-3{fill:#00e245;}</style></defs><title>paused_2</title><g id="Layer_2" data-name="Layer 2"><g id="Layer_1-2" data-name="Layer 1"><path class="cls-1" d="M908.34,530.73a50.18,50.18,0,0,0-14.66-34.07l-.09-.08A50,50,0,0,0,858,481.79h-.18a49.91,49.91,0,0,0-35.71,15L754.2,565.65c3.82-1.77,7.67-3.49,11.55-5.13A376.8,376.8,0,0,1,908.34,530.73Z"/><path class="cls-1" d="M534.15,900.13H443.8c-33.07,0-59.26-27.58-59.26-60.65v-393c0-33.07,26.19-60.65,59.26-60.65H951c27.71,0,50.18-21.91,50.18-49.63S978.7,286.62,951,286.62H443.8A159.72,159.72,0,0,0,284,446.52v393A159.72,159.72,0,0,0,443.8,999.38H544.57A379.42,379.42,0,0,1,534,910.12C534,906.78,534.07,903.45,534.15,900.13Z"/><path class="cls-1" d="M735,575.22a14.56,14.56,0,0,1-7-3.81l-75.9-74.55a50.55,50.55,0,0,0-71,.32l-.14.14a50.4,50.4,0,0,0,.24,71.53l69,68A378.81,378.81,0,0,1,735,575.22Z"/><path class="cls-2" d="M701.29,1224.73a380.19,380.19,0,0,1-137.43-166.91,376.48,376.48,0,0,1-19.29-58.44H443.8A159.72,159.72,0,0,1,284,839.48v-393A159.72,159.72,0,0,1,443.8,286.62H951c27.71,0,50.18,21.9,50.18,49.62S978.7,385.87,951,385.87H443.8c-33.07,0-59.26,27.58-59.26,60.65v393c0,33.07,26.19,60.65,59.26,60.65h90.35A377.87,377.87,0,0,1,598.84,698a381.21,381.21,0,0,1,46.32-56.13q2.49-2.49,5-4.93l-69-68a50.4,50.4,0,0,1-.24-71.53l.14-.14a50.55,50.55,0,0,1,71-.32L728,571.41a14.56,14.56,0,0,0,7,3.81q9.46-5.06,19.21-9.57l67.86-68.83a49.91,49.91,0,0,1,35.71-15H858a50,50,0,0,1,35.64,14.79l.09.08a50.18,50.18,0,0,1,14.66,34.07c1.7,0,3.41,0,5.11,0a377.84,377.84,0,0,1,212.17,64.82,380.55,380.55,0,0,1,137.43,166.91q4.18,9.9,7.79,20A645.34,645.34,0,0,0,1286,643C1286,287.88,998.12,0,643,0S0,287.88,0,643s287.88,643,643,643a644.82,644.82,0,0,0,147.18-16.93q-12.33-4.24-24.43-9.35A379.44,379.44,0,0,1,701.29,1224.73Z"/><path class="cls-3" d="M911.5,568.11c-190.2,0-344.39,154.19-344.39,344.39S721.3,1256.89,911.5,1256.89s344.39-154.19,344.39-344.39S1101.7,568.11,911.5,568.11Zm-61,481.09a20,20,0,0,1-40,0V770a20,20,0,0,1,40,0Zm166,9.8a20,20,0,0,1-40,0V779.8a20,20,0,0,1,40,0Z"/></g></g></svg>