<svg xmlns="http://www.w3.org/2000/svg" xmlns:xlink="http://www.w3.org/1999/xlink" viewBox="0 0 335 335"><defs><style>.cls-1{fill:#1a1a1a;}.cls-2{fill:url(#linear-gradient);}.cls-3{fill:#fff;}</style><linearGradient id="linear-gradient" x1="49.06" y1="49.06" x2="285.94" y2="285.94" gradientUnits="userSpaceOnUse"><stop offset="0" stop-color="#00afb1"/><stop offset="1" stop-color="#7a55de"/></linearGradient></defs><title>paused  (win7)</title><g id="Layer_2" data-name="Layer 2"><g id="Layer_1-2" data-name="Layer 1"><ellipse class="cls-1" cx="239.18" cy="233.96" rx="85.08" ry="83.98"/><path class="cls-2" d="M143.82,260.34H115.61A41.6,41.6,0,0,1,74,218.68V116.32a41.6,41.6,0,0,1,41.64-41.66H247.73a12.93,12.93,0,1,1,0,25.86H115.61a15.63,15.63,0,0,0-15.44,15.8V218.68a15.63,15.63,0,0,0,15.44,15.8h24.71v-.27A98.87,98.87,0,0,1,168.49,165L151.4,148.18a13.12,13.12,0,0,1-.06-18.63l0,0a13.16,13.16,0,0,1,18.48-.08l19.56,19.21a97.1,97.1,0,0,1,11.48-5.79l13.25-13.43a13,13,0,0,1,9.3-3.91h0a13.06,13.06,0,0,1,9.29,3.85l0,0a12.94,12.94,0,0,1,3.33,5.72c1.12,0,2.24-.07,3.37-.07a99.34,99.34,0,0,1,92.59,63.65,167.37,167.37,0,1,0-121,130.57A99.56,99.56,0,0,1,143.82,260.34Z"/><path class="cls-3" d="M189.42,148.64l-19.56-19.21a13.16,13.16,0,0,0-18.48.08l0,0a13.12,13.12,0,0,0,.06,18.63L168.49,165A100.07,100.07,0,0,1,189.42,148.64Z"/><path class="cls-3" d="M232.8,129.38l0,0a13.06,13.06,0,0,0-9.29-3.85h0a13,13,0,0,0-9.3,3.91L200.9,142.85a98.36,98.36,0,0,1,35.23-7.75A12.94,12.94,0,0,0,232.8,129.38Z"/><path class="cls-3" d="M115.61,234.48a15.63,15.63,0,0,1-15.44-15.8V116.32a15.63,15.63,0,0,1,15.44-15.8H247.73a12.93,12.93,0,1,0,0-25.86H115.61A41.6,41.6,0,0,0,74,116.32V218.68a41.6,41.6,0,0,0,41.64,41.66h28.21a99,99,0,0,1-3.5-25.86Z"/><rect class="cls-3" x="207" y="194" width="23" height="81" rx="11.5" ry="11.5"/><rect class="cls-3" x="250" y="194" width="23" height="81" rx="11.5" ry="11.5"/></g></g></svg>