<svg xmlns="http://www.w3.org/2000/svg" xmlns:xlink="http://www.w3.org/1999/xlink" viewBox="0 0 1930.53 1930.53"><defs><style>.cls-1{fill:none;}.cls-2{fill:#fff;}.cls-3{fill:url(#linear-gradient);}</style><linearGradient id="linear-gradient" x1="854.26" y1="1366.26" x2="1888.26" y2="1366.26" gradientUnits="userSpaceOnUse"><stop offset="0" stop-color="#4bc0af"/><stop offset="1" stop-color="#00aeef"/></linearGradient></defs><title>windows sync</title><g id="Layer_2" data-name="Layer 2"><g id="Layer_1-2" data-name="Layer 1"><path class="cls-1" d="M1363.59,796.72a75.35,75.35,0,0,0-22-51.14l-.13-.13a75.21,75.21,0,0,0-53.5-22.19h-.27a74.88,74.88,0,0,0-53.61,22.56L1132.19,849.14q8.63-4,17.35-7.69A565.71,565.71,0,0,1,1363.59,796.72Z"/><path class="cls-1" d="M801.87,1351.26H666.23c-49.65,0-89-41.39-89-91V670.31c0-49.65,39.32-91,89-91h761.38c41.61,0,75.34-32.89,75.34-74.5s-33.73-74.5-75.34-74.5H666.23a239.77,239.77,0,0,0-240,240v589.9a239.77,239.77,0,0,0,240,240H817.5a569.36,569.36,0,0,1-15.83-134Q801.67,1358.75,801.87,1351.26Z"/><path class="cls-1" d="M1103.35,863.51a21.85,21.85,0,0,1-10.53-5.72L978.89,745.88a75.89,75.89,0,0,0-106.53.48l-.22.21A75.69,75.69,0,0,0,872.5,854L976.05,956.1a569.74,569.74,0,0,1,127.3-92.59Z"/><path class="cls-2" d="M1052.76,1838.55A571.27,571.27,0,0,1,846.45,1588a566.29,566.29,0,0,1-29-87.73H666.23a239.77,239.77,0,0,1-240-240V670.31a239.77,239.77,0,0,1,240-240h761.38c41.61,0,75.34,32.89,75.34,74.5s-33.73,74.5-75.34,74.5H666.23c-49.65,0-89,41.4-89,91v589.9c0,49.66,39.32,91,89,91H801.87A566.92,566.92,0,0,1,899,1047.76,573.5,573.5,0,0,1,968.5,963.5q3.74-3.74,7.55-7.4L872.5,854a75.69,75.69,0,0,1-.36-107.38l.22-.21a75.89,75.89,0,0,1,106.53-.48l113.93,111.91a21.85,21.85,0,0,0,10.53,5.72q14.24-7.59,28.84-14.37l101.88-103.32a74.88,74.88,0,0,1,53.61-22.56h.27a75.21,75.21,0,0,1,53.5,22.19l.13.13a75.35,75.35,0,0,1,22,51.14q3.83,0,7.67-.05A567.05,567.05,0,0,1,1689.76,894a570.91,570.91,0,0,1,206.31,250.56q6.3,14.87,11.7,30a968.92,968.92,0,0,0,22.76-209.27C1930.53,432.16,1498.36,0,965.26,0S0,432.16,0,965.26s432.16,965.27,965.26,965.27a967.86,967.86,0,0,0,221-25.42q-18.53-6.37-36.67-14A569.61,569.61,0,0,1,1052.76,1838.55Z"/><path class="cls-3" d="M1371.26,849.26c-285.53,0-517,231.47-517,517s231.47,517,517,517,517-231.47,517-517S1656.79,849.26,1371.26,849.26Zm0,843.78c-175.71,0-318.77-141.16-318.77-315.08,0-112.5,59.55-211.88,149.42-267.83h-67.17a19.19,19.19,0,0,1-2.39-.1,18.22,18.22,0,0,1,2.39-36.33h127.51a18.22,18.22,0,0,1,18.22,18.22V1220a18.22,18.22,0,0,1-36.43-.57v-91.37C1151.8,1174,1088.92,1268.9,1088.92,1378c0,154,126.07,278.65,282.34,278.65a18.21,18.21,0,0,1,18.5,16.22,17.31,17.31,0,0,1,.11,2.39A18.22,18.22,0,0,1,1371.26,1693Zm236.81-54.65a18.22,18.22,0,0,1,18.5,16.23,19,19,0,0,1,.11,2.38,18.22,18.22,0,0,1-18.61,17.82H1480.56a18.21,18.21,0,0,1-18.22-18.21v-128a18.22,18.22,0,1,1,36.43.52v91.08c92-46,154.84-140.69,154.84-249.62,0-154-126.07-278.64-282.35-278.64h-.51a18.22,18.22,0,1,1,.51-36.43c175.72,0,318.78,141.16,318.78,315.07,0,112.48-59.37,211.88-149.14,267.83Z"/></g></g></svg>