<?xml version="1.0" encoding="utf-8"?>
<!-- Generator: Adobe Illustrator 19.0.0, SVG Export Plug-In . SVG Version: 6.00 Build 0)  -->
<svg version="1.1" id="Layer_1" xmlns="http://www.w3.org/2000/svg" xmlns:xlink="http://www.w3.org/1999/xlink" x="0px" y="0px"
	 viewBox="0 0 32 32" style="enable-background:new 0 0 32 32;" xml:space="preserve">
<style type="text/css">
	.st0{fill:#333333;}
</style>
<g>
	<g id="XMLID_149_">
		<g>
			<path id="XMLID_38_" class="st0" d="M23.8,12v1.3c-4.8,0-8.7,3.9-8.7,8.7c0,0.9,0.1,1.7,0.4,2.5H8.2V12H23.8z"/>
			<path id="XMLID_37_" class="st0" d="M23.8,10.6H8.2c0-4.3,3.5-7.8,7.8-7.8C20.3,2.8,23.8,6.3,23.8,10.6L23.8,10.6z"/>
			<path id="XMLID_36_" class="st0" d="M6.8,12v12.6c-3.5,0-6.3-2.8-6.3-6.3C0.5,14.8,3.3,12,6.8,12L6.8,12z"/>
			<path id="XMLID_35_" class="st0" d="M31.5,18.1c-1.2-2.4-3.5-4.1-6.3-4.6V12C28.6,12,31.4,14.7,31.5,18.1z"/>
		</g>
	</g>
	<path id="XMLID_157_" d="M23.8,14.9c-3.9,0-7.2,3.2-7.2,7.1c0,4,3.2,7.2,7.2,7.2c3.9,0,7.2-3.2,7.2-7.2
		C30.9,18.1,27.7,14.9,23.8,14.9z M23.7,27c-0.5,0-1-0.4-1-1c0-0.5,0.4-1,1-1c0.5,0,1,0.4,1,1C24.7,26.6,24.3,27,23.7,27z
		 M24.8,23.2c0,0.6-0.4,1-1,1c-0.6,0-1-0.5-1-1v-5.1c0-0.6,0.4-1,1-1c0.6,0,1,0.5,1,1V23.2z"/>
</g>
</svg>
