<?xml version="1.0" encoding="utf-8"?>
<!-- Generator: Adobe Illustrator 19.0.0, SVG Export Plug-In . SVG Version: 6.00 Build 0)  -->
<svg version="1.1" id="Layer_1" xmlns="http://www.w3.org/2000/svg" xmlns:xlink="http://www.w3.org/1999/xlink" x="0px" y="0px"
	 viewBox="-495 369 32 32" style="enable-background:new -495 369 32 32;" xml:space="preserve">
<style type="text/css">
	.st0{fill:#FFFFFF;}
	.st1{fill:#00E245;}
</style>
<g>
	<g id="XMLID_58_">
		<path id="XMLID_114_" class="st0" d="M-471.2,381v1.3c-4.8,0-8.7,3.9-8.7,8.7c0,0.9,0.1,1.7,0.4,2.5h-7.3V381H-471.2z"/>
		<path id="XMLID_48_" class="st0" d="M-471.2,379.6h-15.6c0-4.3,3.5-7.8,7.8-7.8S-471.2,375.3-471.2,379.6L-471.2,379.6z"/>
		<path id="XMLID_47_" class="st0" d="M-488.2,381v12.6c-3.5,0-6.3-2.8-6.3-6.3S-491.7,381-488.2,381L-488.2,381z"/>
		<path id="XMLID_112_" class="st0" d="M-463.5,387.1c-1.2-2.4-3.5-4.2-6.3-4.6V381C-466.4,381-463.6,383.7-463.5,387.1z"/>
	</g>
	<circle id="XMLID_44_" class="st1" cx="-471.2" cy="391" r="7.1"/>
	<g id="XMLID_46_">
		<path id="XMLID_39_" class="st0" d="M-473.1,387.4c-0.5,0-1,0.4-1,1v5.3c0,0.5,0.4,1,1,1c0.5,0,1-0.4,1-1v-5.3
			C-472.1,387.9-472.6,387.4-473.1,387.4z"/>
		<path id="XMLID_38_" class="st0" d="M-469.4,387.4c-0.5,0-1,0.4-1,1v5.3c0,0.5,0.4,1,1,1c0.5,0,1-0.4,1-1v-5.3
			C-468.4,387.9-468.8,387.4-469.4,387.4z"/>
	</g>
</g>
</svg>
