<?xml version="1.0" encoding="utf-8"?>
<!-- Generator: Adobe Illustrator 19.0.0, SVG Export Plug-In . SVG Version: 6.00 Build 0)  -->
<svg version="1.1" id="Layer_1" xmlns="http://www.w3.org/2000/svg" xmlns:xlink="http://www.w3.org/1999/xlink" x="0px" y="0px"
	 viewBox="0 0 32 32" style="enable-background:new 0 0 32 32;" xml:space="preserve">
<style type="text/css">
	.st0{fill:#FFFFFF;}
	.st1{fill:#F9D023;}
</style>
<g>
	<g id="XMLID_58_">
		<path id="XMLID_67_" class="st0" d="M23.8,12v1.3c-4.8,0-8.7,3.9-8.7,8.7c0,0.9,0.1,1.7,0.4,2.5H8.2V12H23.8z"/>
		<path id="XMLID_60_" class="st0" d="M23.8,10.6H8.2c0-4.3,3.5-7.8,7.8-7.8C20.3,2.8,23.8,6.3,23.8,10.6L23.8,10.6z"/>
		<path id="XMLID_59_" class="st0" d="M6.8,12v12.6c-3.5,0-6.3-2.8-6.3-6.3C0.5,14.8,3.3,12,6.8,12L6.8,12z"/>
		<path id="XMLID_66_" class="st0" d="M31.5,18.1c-1.2-2.4-3.5-4.1-6.3-4.6V12C28.6,12,31.4,14.7,31.5,18.1z"/>
	</g>
	<circle id="XMLID_56_" class="st1" cx="23.8" cy="22" r="7.2"/>
	<g id="XMLID_46_">
		<path id="XMLID_37_" class="st0" d="M23.7,17.1c-0.6,0-1,0.5-1,1v5.1c0,0.6,0.5,1,1,1s1-0.5,1-1v-5.1
			C24.8,17.6,24.3,17.1,23.7,17.1z"/>
		<circle id="XMLID_36_" class="st0" cx="23.7" cy="26" r="1"/>
	</g>
</g>
</svg>
