<svg xmlns="http://www.w3.org/2000/svg" viewBox="0 0 329.62 329.91"><defs><style>.cls-1{fill:none;}.cls-2{fill:#b3b3b3;}.cls-3{fill:#fff;}</style></defs><title>error mac (black theme)</title><g id="Layer_2" data-name="Layer 2"><g id="Layer_1-2" data-name="Layer 1"><path class="cls-1" d="M232.82,136.15a12.91,12.91,0,0,0-3.76-8.74l0,0a12.85,12.85,0,0,0-9.14-3.79h0a12.77,12.77,0,0,0-9.16,3.86l-17.39,17.65c1-.45,2-.89,3-1.31A96.58,96.58,0,0,1,232.82,136.15Z"/><path class="cls-1" d="M136.91,230.92H113.75a15.39,15.39,0,0,1-15.19-15.56V114.55A15.39,15.39,0,0,1,113.75,99h130a12.73,12.73,0,1,0,0-25.46h-130a41,41,0,0,0-41,41V215.36a41,41,0,0,0,41,41h25.83a97.2,97.2,0,0,1-2.7-22.9C136.88,232.63,136.89,231.77,136.91,230.92Z"/><path class="cls-1" d="M188.39,147.57a3.68,3.68,0,0,1-1.8-1l-19.46-19.12a12.94,12.94,0,0,0-18.19.08l0,0a12.93,12.93,0,0,0,.06,18.35l17.68,17.46a98.88,98.88,0,0,1,13.1-10.62A95.55,95.55,0,0,1,188.39,147.57Z"/><path class="cls-2" d="M179.75,314.2a97.27,97.27,0,0,1-40.17-57.82H113.75a41,41,0,0,1-41-41V114.55a41,41,0,0,1,41-41h130a12.73,12.73,0,1,1,0,25.46h-130a15.39,15.39,0,0,0-15.19,15.56V215.36a15.39,15.39,0,0,0,15.19,15.56h23.16a97.22,97.22,0,0,1,28.45-66.26l1.29-1.27L149,145.93a12.93,12.93,0,0,1-.06-18.35l0,0a12.94,12.94,0,0,1,18.19-.08l19.46,19.12a3.68,3.68,0,0,0,1.8,1c1.61-.87,3.26-1.69,4.92-2.46l17.39-17.65a12.77,12.77,0,0,1,9.16-3.86h0a12.85,12.85,0,0,1,9.14,3.79l0,0a12.91,12.91,0,0,1,3.76,8.74h1.31A96.5,96.5,0,0,1,272,143.8a97.65,97.65,0,0,1,51.75,51.79c.72,1.7,1.38,3.41,2,5.13A165.89,165.89,0,0,0,329.62,165c0-91.11-73.79-165-164.81-165S0,73.85,0,165s73.79,165,164.81,165a165.05,165.05,0,0,0,37.72-4.34c-2.11-.73-4.19-1.52-6.26-2.4A97.77,97.77,0,0,1,179.75,314.2Z"/><path class="cls-3" d="M233.63,149.56a84.54,84.54,0,1,0,84.45,84.53A84.5,84.5,0,0,0,233.63,149.56Zm37.94,112.67a11.52,11.52,0,0,1-2.4,16.1h0a11.49,11.49,0,0,1-16.09-2.4L236.15,253l-16.94,22.9a11.49,11.49,0,0,1-16.09,2.4h0a11.52,11.52,0,0,1-2.4-16.1l21.12-28.54-21.12-28.55a11.52,11.52,0,0,1,2.4-16.1h0a11.49,11.49,0,0,1,16.09,2.4l16.94,22.9,16.93-22.9a11.49,11.49,0,0,1,16.09-2.4h0a11.52,11.52,0,0,1,2.4,16.1l-21.11,28.55Z"/></g></g></svg>