<svg xmlns="http://www.w3.org/2000/svg" viewBox="0 0 329.55 329.55"><defs><style>.cls-1{fill:none;}.cls-2{fill:#333;}</style></defs><title>new1</title><g id="Layer_2" data-name="Layer 2"><g id="Layer_1-2" data-name="Layer 1"><path class="cls-1" d="M232.77,136a12.88,12.88,0,0,0-3.76-8.73l0,0a12.83,12.83,0,0,0-9.13-3.79h-.05a12.83,12.83,0,0,0-9.15,3.85L193.27,145c1-.45,2-.89,3-1.31A96.71,96.71,0,0,1,232.77,136Z"/><path class="cls-1" d="M136.88,230.67H113.73a15.38,15.38,0,0,1-15.19-15.55V114.43a15.38,15.38,0,0,1,15.19-15.55h130a12.72,12.72,0,1,0,0-25.43h-130a40.93,40.93,0,0,0-41,41V215.12a40.93,40.93,0,0,0,41,41h25.82a97.07,97.07,0,0,1-2.7-22.87C136.85,232.37,136.86,231.52,136.88,230.67Z"/><path class="cls-1" d="M188.35,147.41a3.76,3.76,0,0,1-1.8-1L167.1,127.32a13,13,0,0,0-18.18.09l0,0a12.9,12.9,0,0,0,.06,18.33l17.68,17.44a97.23,97.23,0,0,1,13.09-10.6A95.55,95.55,0,0,1,188.35,147.41Z"/><path class="cls-2" d="M179.71,313.85A97.34,97.34,0,0,1,165.33,302a97.34,97.34,0,0,1-20.84-30.9,96.92,96.92,0,0,1-4.94-15H113.73a40.93,40.93,0,0,1-41-41V114.43a40.93,40.93,0,0,1,41-41h130a12.72,12.72,0,1,1,0,25.43h-130a15.38,15.38,0,0,0-15.19,15.55V215.12a15.38,15.38,0,0,0,15.19,15.55h23.15a96.72,96.72,0,0,1,16.58-51.81,97.94,97.94,0,0,1,11.87-14.39l1.29-1.26-17.68-17.44a12.9,12.9,0,0,1-.06-18.33l0,0a13,13,0,0,1,18.18-.09l19.45,19.11a3.76,3.76,0,0,0,1.8,1q2.43-1.31,4.92-2.46l17.39-17.64a12.83,12.83,0,0,1,9.15-3.85h.05a12.83,12.83,0,0,1,9.13,3.79l0,0a12.88,12.88,0,0,1,3.76,8.73h1.31a97.16,97.16,0,0,1,68.75,28.48,97.53,97.53,0,0,1,20.84,30.91c.71,1.69,1.38,3.4,2,5.12A164.61,164.61,0,1,0,202.49,325.21c-2.11-.72-4.19-1.52-6.26-2.4A97,97,0,0,1,179.71,313.85Z"/><path d="M232.73,150c-47,0-85.07,37.6-85.07,84s38.09,84,85.07,84,85.08-37.6,85.08-84S279.72,150,232.73,150ZM187.46,250.22l-.61-1.92a47.89,47.89,0,0,1,11.74-48.72,48.85,48.85,0,0,1,25.29-13.22l-5.24-4.67,10.71-12.13L257,194.13l-24.56,27.63L220.3,211.05l8.17-9.16a31.74,31.74,0,0,0-26.1,41.38l.61,1.9Zm78.91,17.15a48.32,48.32,0,0,1-25,13.17l6.5,5.77-10.71,12.13-27.64-24.57,24.56-27.63L246.18,257l-6.73,7.65A32.39,32.39,0,0,0,255.18,256a31.75,31.75,0,0,0,8.16-30.76l-.53-1.93,15.58-4.25.52,1.94A47.78,47.78,0,0,1,266.37,267.37Z"/></g></g></svg>