<svg xmlns="http://www.w3.org/2000/svg" viewBox="0 0 329.08 329.55"><defs><style>.cls-1{fill:none;}.cls-2{fill:#333;}</style></defs><title>paused mac</title><g id="Layer_2" data-name="Layer 2"><g id="Layer_1-2" data-name="Layer 1"><path class="cls-1" d="M232.44,136a12.92,12.92,0,0,0-3.75-8.73l0,0a12.82,12.82,0,0,0-9.12-3.79h-.05a12.79,12.79,0,0,0-9.14,3.85L193,145c1-.45,2-.89,2.95-1.31A96.5,96.5,0,0,1,232.44,136Z"/><path class="cls-1" d="M136.69,230.67H113.57A15.37,15.37,0,0,1,98.4,215.12V114.43a15.37,15.37,0,0,1,15.17-15.55H243.35a12.72,12.72,0,1,0,0-25.43H113.57a40.9,40.9,0,0,0-40.91,41V215.12a40.9,40.9,0,0,0,40.91,41h25.78a97.6,97.6,0,0,1-2.7-22.87C136.65,232.37,136.67,231.52,136.69,230.67Z"/><path class="cls-1" d="M188.08,147.41a3.81,3.81,0,0,1-1.8-1l-19.42-19.11a12.93,12.93,0,0,0-18.16.09l0,0a12.93,12.93,0,0,0,.06,18.33l17.65,17.44a97.39,97.39,0,0,1,21.7-15.8Z"/><path class="cls-2" d="M179.46,313.85a97.31,97.31,0,0,1-40.11-57.75H113.57a40.9,40.9,0,0,1-40.91-41V114.43a40.9,40.9,0,0,1,40.91-41H243.35a12.72,12.72,0,1,1,0,25.43H113.57A15.37,15.37,0,0,0,98.4,114.43V215.12a15.37,15.37,0,0,0,15.17,15.55h23.12a96.93,96.93,0,0,1,16.55-51.81,97.81,97.81,0,0,1,11.85-14.39l1.29-1.26-17.65-17.44a12.93,12.93,0,0,1-.06-18.33l0,0a12.93,12.93,0,0,1,18.16-.09l19.42,19.11a3.81,3.81,0,0,0,1.8,1q2.43-1.31,4.92-2.46l17.36-17.64a12.79,12.79,0,0,1,9.14-3.85h.05a12.82,12.82,0,0,1,9.12,3.79l0,0a12.92,12.92,0,0,1,3.75,8.73h1.31A96.62,96.62,0,0,1,288,152.61a97.59,97.59,0,0,1,35.17,42.77c.71,1.69,1.38,3.4,2,5.12a165.55,165.55,0,0,0,3.88-35.73C329.08,73.77,255.41,0,164.54,0S0,73.77,0,164.77,73.67,329.55,164.54,329.55a164.53,164.53,0,0,0,37.66-4.34c-2.1-.72-4.19-1.52-6.25-2.4A96.75,96.75,0,0,1,179.46,313.85Z"/><path d="M233.25,149.66a84.18,84.18,0,1,0,84.06,84.18A84.11,84.11,0,0,0,233.25,149.66ZM221.77,263.12a11.49,11.49,0,1,1-23,0v-58a11.49,11.49,0,0,1,11.48-11.5,11.31,11.31,0,0,1,3.41.52,4.83,4.83,0,0,1,3.69,2,11.49,11.49,0,0,1,4.39,9Zm42.93,0a11.48,11.48,0,1,1-23,0v-58a11.48,11.48,0,1,1,23,0Z"/></g></g></svg>