<?xml version="1.0" encoding="utf-8"?>
<!-- Generator: Adobe Illustrator 19.0.0, SVG Export Plug-In . SVG Version: 6.00 Build 0)  -->
<svg version="1.1" id="Layer_1" xmlns="http://www.w3.org/2000/svg" xmlns:xlink="http://www.w3.org/1999/xlink" x="0px" y="0px"
	 viewBox="0 0 32 32" style="enable-background:new 0 0 32 32;" xml:space="preserve">
<style type="text/css">
	.st0{fill:#B3B3B3;}
	.st1{fill:#FFFFFF;}
</style>
<g>
	<g id="XMLID_285_">
		<g>
			<path id="XMLID_38_" class="st0" d="M23.8,12v1.3c-4.8,0-8.7,3.9-8.7,8.7c0,0.9,0.1,1.7,0.4,2.5H8.2V12H23.8z"/>
			<path id="XMLID_37_" class="st0" d="M23.8,10.6H8.2c0-4.3,3.5-7.8,7.8-7.8C20.3,2.8,23.8,6.3,23.8,10.6L23.8,10.6z"/>
			<path id="XMLID_36_" class="st0" d="M6.8,12v12.6c-3.5,0-6.3-2.8-6.3-6.3C0.5,14.8,3.3,12,6.8,12L6.8,12z"/>
			<path id="XMLID_35_" class="st0" d="M31.5,18.1c-1.2-2.4-3.5-4.2-6.3-4.6V12C28.6,12,31.4,14.7,31.5,18.1z"/>
		</g>
	</g>
	<path id="XMLID_273_" class="st1" d="M23.8,14.9c-3.9,0-7.1,3.2-7.1,7.1c0,4,3.2,7.2,7.1,7.2c4,0,7.2-3.2,7.2-7.2
		C30.9,18.1,27.7,14.9,23.8,14.9z M19.7,23.4c-0.1-0.4-0.2-0.9-0.2-1.3c0-2.2,1.7-4,3.9-4.2L22.6,17l1-1l2.4,2.4l-2.4,2.4l-1-1
		l0.7-0.7c-1.4,0.2-2.5,1.4-2.5,2.8c0,0.3,0.1,0.6,0.1,0.9L19.7,23.4z M24.1,26.3l0.8,0.8l-1,1l-2.5-2.5l2.5-2.4l1,1l-0.8,0.8
		c1.4-0.2,2.5-1.4,2.5-2.8c0-0.3-0.1-0.6-0.1-0.9l1.3-0.4c0.1,0.4,0.2,0.9,0.2,1.3C28,24.2,26.3,26.1,24.1,26.3z"/>
</g>
</svg>
