<?xml version="1.0" encoding="utf-8"?>
<!-- Generator: Adobe Illustrator 19.0.0, SVG Export Plug-In . SVG Version: 6.00 Build 0)  -->
<svg version="1.1" id="Layer_1" xmlns="http://www.w3.org/2000/svg" xmlns:xlink="http://www.w3.org/1999/xlink" x="0px" y="0px"
	 viewBox="0 0 32 32" style="enable-background:new 0 0 32 32;" xml:space="preserve">
<style type="text/css">
	.st0{fill:#0872B9;}
	.st1{fill:#28AAE1;}
	.st2{fill:#191818;}
	.st3{fill:#FFFFFF;}
</style>
<g>
	<g id="XMLID_17_">
		<path id="XMLID_45_" class="st0" d="M23.8,12v1.3c-4.8,0-8.7,3.9-8.7,8.7c0,0.9,0.1,1.7,0.4,2.5H8.2V12H23.8z"/>
		<path id="XMLID_10_" class="st1" d="M23.8,10.6H8.2c0-4.3,3.5-7.8,7.8-7.8C20.3,2.8,23.8,6.3,23.8,10.6L23.8,10.6z"/>
		<path id="XMLID_9_" class="st1" d="M6.8,12v12.6c-3.5,0-6.3-2.8-6.3-6.3C0.5,14.8,3.3,12,6.8,12L6.8,12z"/>
		<path id="XMLID_35_" class="st1" d="M31.5,18.1c-1.2-2.4-3.5-4.2-6.3-4.6V12C28.6,12,31.4,14.7,31.5,18.1z"/>
	</g>
	<circle id="XMLID_6_" class="st2" cx="23.8" cy="22" r="7.1"/>
	<g id="XMLID_8_">
		<path id="XMLID_4_" class="st3" d="M21.9,18.4c-0.5,0-1,0.4-1,1v5.3c0,0.5,0.4,1,1,1c0.5,0,1-0.4,1-1v-5.3
			C22.9,18.9,22.4,18.4,21.9,18.4z"/>
		<path id="XMLID_3_" class="st3" d="M25.6,18.4c-0.5,0-1,0.4-1,1v5.3c0,0.5,0.4,1,1,1c0.5,0,1-0.4,1-1v-5.3
			C26.6,18.9,26.2,18.4,25.6,18.4z"/>
	</g>
</g>
</svg>
