<svg xmlns="http://www.w3.org/2000/svg" viewBox="0 0 1930.53 1930.53"><defs><style>.cls-1{fill:none;}.cls-2{fill:#333;}</style></defs><title>sync mac</title><g id="Layer_2" data-name="Layer 2"><g id="Layer_1-2" data-name="Layer 1"><path class="cls-1" d="M1363.59,796.72a75.35,75.35,0,0,0-22-51.14l-.13-.13a75.21,75.21,0,0,0-53.5-22.19h-.27a74.88,74.88,0,0,0-53.61,22.56L1132.19,849.14q8.63-4,17.35-7.69A565.71,565.71,0,0,1,1363.59,796.72Z"/><path class="cls-1" d="M801.87,1351.26H666.23c-49.65,0-89-41.39-89-91V670.31c0-49.65,39.32-91,89-91h761.38c41.61,0,75.34-32.89,75.34-74.5s-33.73-74.5-75.34-74.5H666.23a239.77,239.77,0,0,0-240,240v589.9a239.77,239.77,0,0,0,240,240H817.5a569.36,569.36,0,0,1-15.83-134Q801.67,1358.75,801.87,1351.26Z"/><path class="cls-1" d="M1103.35,863.51a21.85,21.85,0,0,1-10.53-5.72L978.89,745.88a75.89,75.89,0,0,0-106.53.48l-.22.21A75.69,75.69,0,0,0,872.5,854L976.05,956.1a569.74,569.74,0,0,1,127.3-92.59Z"/><path class="cls-2" d="M1052.76,1838.55A571.27,571.27,0,0,1,846.45,1588a566.29,566.29,0,0,1-29-87.73H666.23a239.77,239.77,0,0,1-240-240V670.31a239.77,239.77,0,0,1,240-240h761.38c41.61,0,75.34,32.89,75.34,74.5s-33.73,74.5-75.34,74.5H666.23c-49.65,0-89,41.4-89,91v589.9c0,49.66,39.32,91,89,91H801.87A566.92,566.92,0,0,1,899,1047.76,573.5,573.5,0,0,1,968.5,963.5q3.74-3.74,7.55-7.4L872.5,854a75.69,75.69,0,0,1-.36-107.38l.22-.21a75.89,75.89,0,0,1,106.53-.48l113.93,111.91a21.85,21.85,0,0,0,10.53,5.72q14.24-7.59,28.84-14.37l101.88-103.32a74.88,74.88,0,0,1,53.61-22.56h.27a75.21,75.21,0,0,1,53.5,22.19l.13.13a75.35,75.35,0,0,1,22,51.14q3.83,0,7.67-.05A567.05,567.05,0,0,1,1689.76,894a570.91,570.91,0,0,1,206.31,250.56q6.3,14.87,11.7,30a968.92,968.92,0,0,0,22.76-209.27C1930.53,432.16,1498.36,0,965.26,0S0,432.16,0,965.26s432.16,965.27,965.26,965.27a967.86,967.86,0,0,0,221-25.42q-18.53-6.37-36.67-14A569.61,569.61,0,0,1,1052.76,1838.55Z"/><path d="M1376.26,877.26c-276.14,0-500,223.86-500,500s223.86,500,500,500,500-223.85,500-500S1652.41,877.26,1376.26,877.26Zm0,816c-169.94,0-308.29-136.52-308.29-304.71,0-108.81,57.6-204.92,144.51-259h-65a16.24,16.24,0,0,1-2.31-.1,17.62,17.62,0,0,1,2.31-35.13h123.32a17.61,17.61,0,0,1,17.61,17.62v123.32a5,5,0,0,1,0,.55,17.62,17.62,0,0,1-35.23-.55V1146.9c-89.2,44.37-150,136.2-150,241.68,0,148.91,121.93,269.48,273.06,269.48a17.62,17.62,0,0,1,17.9,15.69,19.84,19.84,0,0,1,.1,2.31A17.62,17.62,0,0,1,1376.26,1693.29Zm229-52.85a17.62,17.62,0,0,1,17.89,15.69,17.87,17.87,0,0,1,.11,2.31,17.63,17.63,0,0,1-18,17.24H1482a17.62,17.62,0,0,1-17.61-17.62V1534.24a17.62,17.62,0,0,1,35.23.5v88.09c89-44.44,149.74-136.06,149.74-241.41,0-148.92-121.92-269.48-273.06-269.48h-.49a17.62,17.62,0,0,1,.49-35.24c169.94,0,308.3,136.53,308.3,304.72,0,108.78-57.42,204.91-144.24,259Z"/></g></g></svg>