<svg xmlns="http://www.w3.org/2000/svg" viewBox="0 0 320.69 320.69"><defs><style>.cls-1{fill:none;}.cls-2{fill:#333;}</style></defs><title>sync mac_1</title><g id="Layer_2" data-name="Layer 2"><g id="Layer_1-2" data-name="Layer 1"><path class="cls-1" d="M226.52,132.35a12.59,12.59,0,0,0-3.66-8.5l0,0a12.51,12.51,0,0,0-8.89-3.68h0a12.44,12.44,0,0,0-8.91,3.74l-16.92,17.17c.95-.44,1.91-.87,2.88-1.28A94,94,0,0,1,226.52,132.35Z"/><path class="cls-1" d="M133.2,224.47H110.67a15,15,0,0,1-14.78-15.13v-98a15,15,0,0,1,14.78-15.12H237.15a12.38,12.38,0,1,0,0-24.76H110.67a39.83,39.83,0,0,0-39.86,39.88v98a39.83,39.83,0,0,0,39.86,39.88H135.8A94.53,94.53,0,0,1,133.17,227Q133.17,225.71,133.2,224.47Z"/><path class="cls-1" d="M183.29,143.44a3.52,3.52,0,0,1-1.75-.95L162.61,123.9a12.62,12.62,0,0,0-17.7.08l0,0a12.58,12.58,0,0,0,.06,17.84l17.2,17a94.71,94.71,0,0,1,12.74-10.32A96.67,96.67,0,0,1,183.29,143.44Z"/><path class="cls-2" d="M174.88,305.42a95,95,0,0,1-34.27-41.63,93.79,93.79,0,0,1-4.81-14.57H110.67a39.83,39.83,0,0,1-39.86-39.88v-98a39.83,39.83,0,0,1,39.86-39.88H237.15a12.38,12.38,0,1,1,0,24.76H110.67a15,15,0,0,0-14.78,15.12v98a15,15,0,0,0,14.78,15.13H133.2a94.52,94.52,0,0,1,27.69-64.42l1.25-1.22-17.2-17a12.58,12.58,0,0,1-.06-17.84l0,0a12.62,12.62,0,0,1,17.7-.08l18.93,18.59a3.52,3.52,0,0,0,1.75.95q2.36-1.26,4.79-2.38L205,123.89a12.44,12.44,0,0,1,8.91-3.74h0a12.51,12.51,0,0,1,8.89,3.68l0,0a12.59,12.59,0,0,1,3.66,8.5h1.27a94.2,94.2,0,0,1,52.91,16.17A94.69,94.69,0,0,1,315,190.13c.7,1.64,1.34,3.31,1.94,5A160.16,160.16,0,1,0,197.05,316.47q-3.08-1.05-6.09-2.33A95,95,0,0,1,174.88,305.42Z"/><path d="M228.43,145.58c-45.73,0-82.8,36.59-82.8,81.72S182.7,309,228.43,309s82.79-36.59,82.79-81.73S274.15,145.58,228.43,145.58Zm0,133.38c-28.14,0-51.05-22.32-51.05-49.81a49.71,49.71,0,0,1,23.93-42.33H190.55a2.36,2.36,0,0,1-.38,0,2.88,2.88,0,0,1,.38-5.74H211a2.9,2.9,0,0,1,2.92,2.88v20.25a2.92,2.92,0,0,1-5.84-.1V189.65a44.07,44.07,0,0,0-24.84,39.5c0,24.34,20.19,44,45.22,44a2.91,2.91,0,0,1,3,2.56c0,.13,0,.25,0,.38A2.91,2.91,0,0,1,228.43,279Zm37.92-8.64a2.9,2.9,0,0,1,3,2.56,2.42,2.42,0,0,1,0,.38,2.91,2.91,0,0,1-3,2.82H245.93A2.9,2.9,0,0,1,243,273.2V253a2.92,2.92,0,0,1,5.84.08v14.4A44.06,44.06,0,0,0,273.64,228c0-24.34-20.19-44-45.21-44h-.09a2.88,2.88,0,1,1,.09-5.76c28.14,0,51.05,22.31,51.05,49.8a49.75,49.75,0,0,1-23.89,42.34Z"/></g></g></svg>