<svg xmlns="http://www.w3.org/2000/svg" viewBox="0 0 1930.53 1930.53"><defs><style>.cls-1{fill:none;}.cls-2{fill:#2d2d2d;}</style></defs><title>sync1</title><g id="Layer_2" data-name="Layer 2"><g id="Layer_1-2" data-name="Layer 1"><path class="cls-1" d="M1363.59,796.72a75.35,75.35,0,0,0-22-51.14l-.13-.13a75.21,75.21,0,0,0-53.5-22.19h-.27a74.88,74.88,0,0,0-53.61,22.56L1132.19,849.14q8.63-4,17.35-7.69A565.71,565.71,0,0,1,1363.59,796.72Z"/><path class="cls-1" d="M801.87,1351.26H666.23c-49.65,0-89-41.39-89-91V670.31c0-49.65,39.32-91,89-91h761.38c41.61,0,75.34-32.89,75.34-74.5s-33.73-74.5-75.34-74.5H666.23a239.77,239.77,0,0,0-240,240v589.9a239.77,239.77,0,0,0,240,240H817.5a569.36,569.36,0,0,1-15.83-134Q801.67,1358.75,801.87,1351.26Z"/><path class="cls-1" d="M1103.35,863.51a21.85,21.85,0,0,1-10.53-5.72L978.89,745.88a75.89,75.89,0,0,0-106.53.48l-.22.21A75.69,75.69,0,0,0,872.5,854L976.05,956.1a569.74,569.74,0,0,1,127.3-92.59Z"/><path class="cls-2" d="M1052.76,1838.55A571.27,571.27,0,0,1,846.45,1588a566.29,566.29,0,0,1-29-87.73H666.23a239.77,239.77,0,0,1-240-240V670.31a239.77,239.77,0,0,1,240-240h761.38c41.61,0,75.34,32.89,75.34,74.5s-33.73,74.5-75.34,74.5H666.23c-49.65,0-89,41.4-89,91v589.9c0,49.66,39.32,91,89,91H801.87A566.92,566.92,0,0,1,899,1047.76,573.5,573.5,0,0,1,968.5,963.5q3.74-3.74,7.55-7.4L872.5,854a75.69,75.69,0,0,1-.36-107.38l.22-.21a75.89,75.89,0,0,1,106.53-.48l113.93,111.91a21.85,21.85,0,0,0,10.53,5.72q14.24-7.59,28.84-14.37l101.88-103.32a74.88,74.88,0,0,1,53.61-22.56h.27a75.21,75.21,0,0,1,53.5,22.19l.13.13a75.35,75.35,0,0,1,22,51.14q3.83,0,7.67-.05A567.05,567.05,0,0,1,1689.76,894a570.91,570.91,0,0,1,206.31,250.56q6.3,14.87,11.7,30a968.92,968.92,0,0,0,22.76-209.27C1930.53,432.16,1498.36,0,965.26,0S0,432.16,0,965.26s432.16,965.27,965.26,965.27a967.86,967.86,0,0,0,221-25.42q-18.53-6.37-36.67-14A569.61,569.61,0,0,1,1052.76,1838.55Z"/><path d="M1880.72,1272.11c-44.28-241.13-255.53-423.85-509.46-423.85q-13.23,0-26.29.66c-223.48,11.18-409.65,164-470.59,370.49a517.27,517.27,0,0,0-20.9,131.85q-.21,7.48-.22,15a518.9,518.9,0,0,0,17.51,134c51.68,193.52,212.61,342.42,412.68,376.58a520.72,520.72,0,0,0,87.81,7.42c286.09,0,518-231.91,518-518A521.62,521.62,0,0,0,1880.72,1272.11Zm-737.4,130.75a227.17,227.17,0,0,0,28.81,77.61l.07.12a46.76,46.76,0,0,1,4.89,35,45.07,45.07,0,0,1-20.89,28.2,42.53,42.53,0,0,1-23.39,6.93,44.17,44.17,0,0,1-39.45-23.15,322.13,322.13,0,0,1,49.69-392c3.48-3.49,7.15-7,10.91-10.42a321.71,321.71,0,0,1,267.74-80.31,46.47,46.47,0,0,1,18.56-60.69l.22-.12a46.53,46.53,0,0,1,63.14,17.31l.05.1,56.61,100.15a46.51,46.51,0,0,1-17.31,63.13l-.1.06L1442.3,1221.6l-.58.24c-7.37,3.16-13.91,5.27-21.86,5.27a47.09,47.09,0,0,1-6.33-.43c-14.67-1.94-27.43-10.52-34.11-22.94a46.48,46.48,0,0,1,17.35-63l1.83-1,7.8-4.38q-7.71-1.15-15.49-1.81a231.94,231.94,0,0,0-91.52,10.61,228.85,228.85,0,0,0-81.28,46.55c-3.76,3.33-7.13,6.49-10.3,9.66a233.55,233.55,0,0,0-28.59,34.72A228.94,228.94,0,0,0,1143.32,1402.86Zm550.45-35a322.26,322.26,0,0,1-49,165.93c-.71,1.14-1.74,2.07-2.42,3.23-22.37,37.73-55.38,69.72-95.52,95.75-1.11.72-2.06,1.69-3.17,2.39a323.3,323.3,0,0,1-173.35,50.41,333.89,333.89,0,0,1-46.42-3.28.82.82,0,0,0-.93.42,1,1,0,0,0-.05,1.15l.81,1.41a46.74,46.74,0,0,1-16.27,62.52,23.11,23.11,0,0,1-3.18,1.62c-6,2.53-12.73,4.88-20.94,4.88-17.14,0-32.6-8.91-40.38-23.26l-56.39-99.77a44.65,44.65,0,0,1,.75-47l.06-.1,1.91-3.81a22.9,22.9,0,0,1,1.72-2.92c8.24-11.85,20.29-19.38,33.92-21.22a.76.76,0,0,0,.23-.1l79.68-44.92c23.08-12.7,50.86-5,63.25,17.52a46.52,46.52,0,0,1-17.3,63.14c-.4.23-.73.41-.56,1.14a.92.92,0,0,0,1,.86A230.89,230.89,0,0,0,1534.48,1527c74.78-74.79,89.45-190,35.68-280.17l-.08-.13c-12.88-22.26-5.57-50.68,16.32-63.35,21.6-12.51,49.57-5.68,62.34,15.21l.08.13A321.49,321.49,0,0,1,1693.77,1367.81Z"/></g></g></svg>