<?xml version="1.0" encoding="utf-8"?>
<!-- Generator: Adobe Illustrator 19.0.0, SVG Export Plug-In . SVG Version: 6.00 Build 0)  -->
<svg version="1.1" id="Layer_1" xmlns="http://www.w3.org/2000/svg" xmlns:xlink="http://www.w3.org/1999/xlink" x="0px" y="0px"
	 viewBox="0 0 32 32" style="enable-background:new 0 0 32 32;" xml:space="preserve">
<style type="text/css">
	.st0{fill:#0872B9;}
	.st1{fill:#28AAE1;}
	.st2{fill:#191818;}
	.st3{fill:#FFFFFF;}
</style>
<g>
	<g id="XMLID_2_">
		<path id="XMLID_33_" class="st0" d="M23.8,12v1.3c-4.8,0-8.7,3.9-8.7,8.7c0,0.9,0.1,1.7,0.4,2.5H8.2V12H23.8z"/>
		<path id="XMLID_31_" class="st1" d="M23.8,10.6H8.2c0-4.3,3.5-7.8,7.8-7.8C20.3,2.8,23.8,6.3,23.8,10.6L23.8,10.6z"/>
		<path id="XMLID_30_" class="st1" d="M6.8,12v12.6c-3.5,0-6.3-2.8-6.3-6.3C0.5,14.8,3.3,12,6.8,12L6.8,12z"/>
		<path id="XMLID_24_" class="st1" d="M31.5,18.1c-1.2-2.4-3.5-4.2-6.3-4.6V12C28.6,12,31.4,14.7,31.5,18.1z"/>
	</g>
	<circle id="XMLID_27_" class="st2" cx="23.8" cy="22" r="7.1"/>
	<g id="XMLID_1_">
		<path id="XMLID_26_" class="st3" d="M23.6,16l-1,1l0.8,0.8c-2.2,0.2-3.9,2-3.9,4.2c0,0.5,0.1,0.9,0.2,1.3l1.3-0.4
			c-0.1-0.3-0.1-0.6-0.1-0.9c0-1.4,1.1-2.6,2.5-2.8l-0.7,0.7l1,1l2.4-2.4L23.6,16z"/>
		<path id="XMLID_25_" class="st3" d="M28,22c0-0.5-0.1-0.9-0.2-1.3l-1.3,0.4c0.1,0.3,0.1,0.6,0.1,0.9c0,1.4-1.1,2.6-2.5,2.8
			l0.8-0.8l-1-1l-2.4,2.4L24,28l1-1l-0.8-0.8C26.3,26.1,28,24.3,28,22z"/>
	</g>
</g>
</svg>
