<svg xmlns="http://www.w3.org/2000/svg" viewBox="0 0 772.21 740.47"><defs><style>.cls-1{fill:#231f20;}</style></defs><title>black verticalAsset 18</title><g id="Layer_2" data-name="Layer 2"><g id="Layer_1-2" data-name="Layer 1"><g id="_Group_" data-name="&lt;Group&gt;"><path id="_Compound_Path_" data-name="&lt;Compound Path&gt;" class="cls-1" d="M114.21,595.49v91.6c0,42.89-33.1,53.38-60.83,53.38-15.15,0-27.51-2.8-39.63-10.49a12.27,12.27,0,0,1,6.3-22.85A12.34,12.34,0,0,1,26.34,709c7.92,5.13,17,7.23,27,7.23,14.21,0,31-6.3,31-28.44V676.6c-9.09,11.19-21,17.48-34.73,17.48C21.44,694.08,0,674.27,0,636.74c0-36.82,21.21-57.33,49.65-57.33,13.28,0,25.4,5.59,34.73,17.24v-1.86c0-7.93,7-14.22,15.15-14.22A15,15,0,0,1,114.21,595.49ZM84.38,654.92V618.56c-4.9-7.46-15.62-12.82-25.41-12.82-16.78,0-28.44,11.66-28.44,31s11.66,31,28.44,31C68.76,667.74,79.48,662.15,84.38,654.92Z"/><path id="_Compound_Path_2" data-name="&lt;Compound Path&gt;" class="cls-1" d="M136.35,638.38c0-31.94,22.38-59,59.44-59,37.29,0,59.67,27,59.67,59,0,32.16-22.38,59.2-59.67,59.2C158.73,697.58,136.35,670.54,136.35,638.38Zm88.34,0c0-17.49-10.49-32.64-28.9-32.64s-28.67,15.15-28.67,32.64c0,17.71,10.26,32.86,28.67,32.86S224.69,656.09,224.69,638.38Z"/><path id="_Compound_Path_3" data-name="&lt;Compound Path&gt;" class="cls-1" d="M270.14,638.38c0-31.94,22.38-59,59.44-59,37.29,0,59.67,27,59.67,59,0,32.16-22.38,59.2-59.67,59.2C292.52,697.58,270.14,670.54,270.14,638.38Zm88.34,0c0-17.49-10.49-32.64-28.9-32.64s-28.67,15.15-28.67,32.64c0,17.71,10.26,32.86,28.67,32.86S358.48,656.09,358.48,638.38Z"/><path id="_Compound_Path_4" data-name="&lt;Compound Path&gt;" class="cls-1" d="M525.37,638.61c0,37.52-21.45,59-49.88,59-13.29,0-25.41-5.83-34.5-16.78V682c0,8.16-7.22,14.45-14.92,14.45a14.86,14.86,0,0,1-14.91-14.91V552.6a14.8,14.8,0,1,1,29.6,0v44a42.7,42.7,0,0,1,34.73-17.24C504.16,579.41,525.37,601.78,525.37,638.61Zm-30.54,0c0-19.58-11.42-32.87-28.66-32.87-9.56,0-20.52,5.6-25.41,13.06v39.85c4.89,7.23,15.85,12.59,25.41,12.59C483.41,671.24,494.83,658.19,494.83,638.61Z"/><path id="_Compound_Path_5" data-name="&lt;Compound Path&gt;" class="cls-1" d="M540.52,638.38c0-31.94,22.38-59,59.44-59,37.29,0,59.67,27,59.67,59,0,32.16-22.38,59.2-59.67,59.2C562.9,697.58,540.52,670.54,540.52,638.38Zm88.34,0c0-17.49-10.49-32.64-28.9-32.64s-28.67,15.15-28.67,32.64c0,17.71,10.25,32.86,28.67,32.86S628.86,656.09,628.86,638.38Z"/><path id="_Compound_Path_6" data-name="&lt;Compound Path&gt;" class="cls-1" d="M772.21,682.89c0,6.3-5.13,13.52-13.52,13.52-3.73,0-7.93-1.16-10.26-4.43l-28.67-35.42-28.2,35a12.11,12.11,0,0,1-10.26,4.89,13.5,13.5,0,0,1-13.52-13.52,12.68,12.68,0,0,1,3.5-8.85l31.23-37.53-29.13-33.33a14.34,14.34,0,0,1-3.5-8.86,13.93,13.93,0,0,1,13.75-13.75c3.5,0,7,.7,10,4.43L720,616.47,746.33,585c2.8-3.73,6.53-4.43,10-4.43a13.93,13.93,0,0,1,13.75,13.75,14.34,14.34,0,0,1-3.5,8.86l-29.13,33.33L768.71,674A13.84,13.84,0,0,1,772.21,682.89Z"/></g><g id="_Group_2" data-name="&lt;Group&gt;"><path class="cls-1" d="M381.14,19.46a214.56,214.56,0,1,1-81,15.76,214.66,214.66,0,0,1,81-15.76m0-19.46a234,234,0,0,0-166,68.76c-91.69,91.69-91.69,240.33,0,332a234.77,234.77,0,0,0,332,0c91.68-91.69,91.68-240.33,0-332A234,234,0,0,0,381.14,0Z"/></g><path id="_Path_" data-name="&lt;Path&gt;" class="cls-1" d="M308.41,328.65H472.26a3,3,0,0,0,2-5l-27.75-27.55-26.78-27.13a5.3,5.3,0,0,0-3.78-1.56h0a5.27,5.27,0,0,0-3.76,1.51l-27.71,27.32a18.46,18.46,0,0,1-25.94-.1l-.13-.14a18.43,18.43,0,0,1,0-26l27.58-27.71a5.35,5.35,0,0,0,0-7.58l-27.33-27a18.41,18.41,0,0,1-.09-26.12l.06-.05a18.46,18.46,0,0,1,25.91-.12l27.71,27.22a5.36,5.36,0,0,0,7.56-.06l26.79-27.17a18.21,18.21,0,0,1,13-5.49h.07a18.28,18.28,0,0,1,13,5.4l0,0a18.46,18.46,0,0,1,.08,25.94l-27.39,27.77a5.37,5.37,0,0,0,0,7.52l9.55,9.63a17.73,17.73,0,0,1,1.44,1.31l43.93,44.24a39.17,39.17,0,0,1,11,21.08A39.77,39.77,0,0,1,495,357.88a39.15,39.15,0,0,1-22.69,7H308.41a58.31,58.31,0,0,1-58.36-58.38V163a58.31,58.31,0,0,1,58.36-58.38H493.59a18.12,18.12,0,1,1,0,36.24H308.41c-12.07,0-21.64,10.07-21.64,22.14V306.51C286.77,318.58,296.34,328.65,308.41,328.65Z"/></g></g></svg>