<svg xmlns="http://www.w3.org/2000/svg" viewBox="0 0 1606.93 563.24"><defs><style>.cls-1{fill:#fff;}</style></defs><title>horizontal whiteAsset 21</title><g id="Layer_2" data-name="Layer 2"><g id="Layer_1-2" data-name="Layer 1"><g id="_Group_" data-name="&lt;Group&gt;"><path id="_Compound_Path_" data-name="&lt;Compound Path&gt;" class="cls-1" d="M817.64,221.06V330.94c0,51.45-39.7,64-73,64-18.18,0-33-3.36-47.53-12.58a14.71,14.71,0,0,1,7.55-27.4,14.76,14.76,0,0,1,7.54,2.23c9.51,6.15,20.42,8.67,32.44,8.67,17.05,0,37.18-7.55,37.18-34.11V318.36c-10.9,13.42-25.16,21-41.66,21-33.83,0-59.55-23.77-59.55-68.78,0-44.18,25.44-68.78,59.55-68.78,15.94,0,30.48,6.71,41.66,20.69v-2.24c0-9.51,8.39-17.05,18.18-17.05A18,18,0,0,1,817.64,221.06Zm-35.79,71.3V248.74c-5.87-9-18.73-15.38-30.47-15.38-20.13,0-34.11,14-34.11,37.19s14,37.18,34.11,37.18C763.12,307.73,776,301,781.85,292.36Z"/><path id="_Compound_Path_2" data-name="&lt;Compound Path&gt;" class="cls-1" d="M844.2,272.5c0-38.3,26.84-70.73,71.3-70.73,44.73,0,71.58,32.43,71.58,70.73,0,38.59-26.85,71-71.58,71C871,343.52,844.2,311.09,844.2,272.5Zm106,0c0-21-12.58-39.14-34.67-39.14s-34.39,18.18-34.39,39.14c0,21.25,12.3,39.43,34.39,39.43S950.17,293.75,950.17,272.5Z"/><path id="_Compound_Path_3" data-name="&lt;Compound Path&gt;" class="cls-1" d="M1004.69,272.5c0-38.3,26.84-70.73,71.3-70.73,44.73,0,71.57,32.43,71.57,70.73,0,38.59-26.84,71-71.57,71C1031.53,343.52,1004.69,311.09,1004.69,272.5Zm106,0c0-21-12.59-39.14-34.67-39.14s-34.39,18.18-34.39,39.14c0,21.25,12.3,39.43,34.39,39.43S1110.66,293.75,1110.66,272.5Z"/><path id="_Compound_Path_4" data-name="&lt;Compound Path&gt;" class="cls-1" d="M1310.84,272.78c0,45-25.72,70.74-59.83,70.74-15.94,0-30.47-7-41.38-20.13v1.4c0,9.78-8.67,17.33-17.89,17.33a17.84,17.84,0,0,1-17.9-17.89V169.61a17.76,17.76,0,1,1,35.51,0v52.85A51.23,51.23,0,0,1,1251,201.77C1285.4,201.77,1310.84,228.61,1310.84,272.78Zm-36.62,0c0-23.48-13.7-39.42-34.39-39.42-11.47,0-24.61,6.71-30.48,15.66v47.81c5.87,8.67,19,15.1,30.48,15.1C1260.52,311.93,1274.22,296.27,1274.22,272.78Z"/><path id="_Compound_Path_5" data-name="&lt;Compound Path&gt;" class="cls-1" d="M1329,272.5c0-38.3,26.84-70.73,71.29-70.73,44.74,0,71.58,32.43,71.58,70.73,0,38.59-26.84,71-71.58,71C1355.86,343.52,1329,311.09,1329,272.5Zm106,0c0-21-12.58-39.14-34.67-39.14s-34.39,18.18-34.39,39.14c0,21.25,12.31,39.43,34.39,39.43S1435,293.75,1435,272.5Z"/><path id="_Compound_Path_6" data-name="&lt;Compound Path&gt;" class="cls-1" d="M1606.93,325.91c0,7.55-6.15,16.21-16.21,16.21-4.48,0-9.51-1.39-12.3-5.31L1544,294.31l-33.84,41.94c-3.35,4.48-7.82,5.87-12.3,5.87-10.34,0-16.21-8.66-16.21-16.21a15.23,15.23,0,0,1,4.19-10.63l37.47-45-34.95-40a17.23,17.23,0,0,1-4.2-10.63,16.7,16.7,0,0,1,16.5-16.49c4.19,0,8.39.83,12,5.31l31.6,37.74,31.59-37.74c3.35-4.48,7.83-5.31,12-5.31a16.7,16.7,0,0,1,16.5,16.49,17.23,17.23,0,0,1-4.2,10.63l-35,40,37.47,45A16.59,16.59,0,0,1,1606.93,325.91Z"/></g><g id="_Group_2" data-name="&lt;Group&gt;"><path class="cls-1" d="M281.62,23.34A258.35,258.35,0,0,1,382.14,519.61a258.35,258.35,0,0,1-201-476A256.69,256.69,0,0,1,281.62,23.34m0-23.34C126.08,0,0,126.08,0,281.62S126.08,563.24,281.62,563.24,563.24,437.15,563.24,281.62,437.15,0,281.62,0Z"/></g><path id="_Path_" data-name="&lt;Path&gt;" class="cls-1" d="M194.37,394.23H390.92a3.6,3.6,0,0,0,2.41-6.06L360,355.12l-32.13-32.53a6.29,6.29,0,0,0-4.52-1.88h-.05a6.29,6.29,0,0,0-4.5,1.81L285.6,355.29a22.14,22.14,0,0,1-31.12-.12l-.16-.16a22.11,22.11,0,0,1,0-31.19l33.09-33.24a6.42,6.42,0,0,0,0-9.1l-32.79-32.34a22.08,22.08,0,0,1-.1-31.33l.06-.06a22.15,22.15,0,0,1,31.08-.14l33.24,32.65a6.42,6.42,0,0,0,9.07-.07L360,217.59A21.89,21.89,0,0,1,375.68,211h.08a21.94,21.94,0,0,1,15.61,6.48l0,0a22.14,22.14,0,0,1,.1,31.11L358.64,282a6.46,6.46,0,0,0,0,9l11.45,11.55a23.26,23.26,0,0,1,1.74,1.57l52.69,53.07a47.13,47.13,0,0,1-33.61,80.53H194.37a70,70,0,0,1-70-70V195.57a70,70,0,0,1,70-70H416.51a21.74,21.74,0,1,1,0,43.47H194.37c-14.48,0-26,12.08-26,26.57v172.1C168.42,382.16,179.89,394.23,194.37,394.23Z"/></g></g></svg>