<svg xmlns="http://www.w3.org/2000/svg" viewBox="0 0 1972.8 1972.8"><defs><style>.cls-1{fill:none;stroke:#000;stroke-miterlimit:10;stroke-width:50px;}</style></defs><title>black strokeAsset 3</title><g id="Layer_2" data-name="Layer 2"><g id="Layer_1-2" data-name="Layer 1"><g id="_Group_" data-name="&lt;Group&gt;"><circle id="_Path_" data-name="&lt;Path&gt;" class="cls-1" cx="986.4" cy="986.4" r="961.4"/><path id="_Path_2" data-name="&lt;Path&gt;" d="M1367.76,1350.07c1.5,1.5,5.46,5.76,2.48,12.91s-8.6,7.42-10.71,7.42h-671c-49.45,0-87.76-40.77-87.76-90.23V692.63c0-49.45,38.31-90.23,87.76-90.23H1446.9c41.44,0,75-33,75-74.5s-33.6-74.5-75-74.5H688.56c-132.21,0-238.76,107-238.76,239.23v587.54c0,132.21,106.55,239.23,238.76,239.23h671c33.75,0,65.88-9.77,92.9-28.77a161.2,161.2,0,0,0,21.84-246.3l-179.88-181.18a74.12,74.12,0,0,0-5.91-5.35l-39.09-39.44a22,22,0,0,1,0-30.82l112.19-113.71a75.53,75.53,0,0,0-.34-106.19l-.13-.15a74.86,74.86,0,0,0-53.29-22.09h-.26a74.59,74.59,0,0,0-53.4,22.45L1144.4,879.09a21.93,21.93,0,0,1-31,.25L1000,767.89a75.59,75.59,0,0,0-106.1.48l-.22.21A75.36,75.36,0,0,0,894,875.53l111.91,110.4a21.9,21.9,0,0,1,.14,31.06l-113,113.48a75.48,75.48,0,0,0,.12,106.46l.55.55a75.55,75.55,0,0,0,106.22.36l113.48-112a21.83,21.83,0,0,1,15.39-6.4h.15a21.68,21.68,0,0,1,15.45,6.61l109.68,111.22"/></g></g></g></svg>