<svg xmlns="http://www.w3.org/2000/svg" viewBox="0 0 1922.8 1922.8"><defs><style>.cls-1{fill:#fff;}</style></defs><title>white circleAsset 9</title><g id="Layer_2" data-name="Layer 2"><g id="Layer_1-2" data-name="Layer 1"><path id="_Compound_Path_" data-name="&lt;Compound Path&gt;" class="cls-1" d="M961.4,0C430.43,0,0,430.43,0,961.4s430.43,961.4,961.4,961.4,961.4-430.43,961.4-961.4S1492.37,0,961.4,0ZM663.56,1345.4h671c2.11,0,7.74-.27,10.71-7.42s-1-11.41-2.48-12.91l-113.63-112.84L1119.45,1101a21.68,21.68,0,0,0-15.45-6.61h-.15a21.83,21.83,0,0,0-15.39,6.4L975,1212.84a75.55,75.55,0,0,1-106.22-.36l-.55-.55a75.48,75.48,0,0,1-.12-106.46L981.06,992a21.9,21.9,0,0,0-.14-31.06L869,850.53a75.36,75.36,0,0,1-.36-106.95l.22-.21a75.59,75.59,0,0,1,106.1-.48l113.48,111.45a21.93,21.93,0,0,0,31-.25l109.73-111.24a74.59,74.59,0,0,1,53.4-22.45h.26a74.86,74.86,0,0,1,53.29,22.09l.13.15a75.53,75.53,0,0,1,.34,106.19L1224.36,962.54a22,22,0,0,0,0,30.82l39.09,39.44a74.12,74.12,0,0,1,5.91,5.35l179.88,181.18a161.88,161.88,0,0,1-21.84,246.3c-27,19-59.15,28.77-92.9,28.77h-671c-132.21,0-238.76-107-238.76-239.23V667.63c0-132.21,106.55-239.23,238.76-239.23H1421.9c41.44,0,75,33.06,75,74.5s-33.6,74.5-75,74.5H663.56c-49.45,0-87.76,40.78-87.76,90.23v587.54C575.8,1304.63,614.11,1345.4,663.56,1345.4Z"/></g></g></svg>