<svg xmlns="http://www.w3.org/2000/svg" viewBox="0 0 1930.53 1934.76"><defs><style>.cls-1{fill:none;}.cls-2{fill:#231f20;}</style></defs><title>pausedpaused black</title><g id="Layer_2" data-name="Layer 2"><g id="Layer_1-2" data-name="Layer 1"><path class="cls-1" d="M949.59,1351.26H666.23c-49.65,0-89-41.39-89-91V670.31c0-49.65,39.32-91,89-91h761.38c41.61,0,75.34-32.89,75.34-74.5s-33.73-74.5-75.34-74.5H666.23a239.77,239.77,0,0,0-240,240v589.9a239.77,239.77,0,0,0,240,240H937.78q-1-16.41-1-33A526.1,526.1,0,0,1,949.59,1351.26Z"/><path class="cls-1" d="M1228.53,996.47a22.07,22.07,0,0,1,.75-30.07l112.63-114.17a75.88,75.88,0,0,0-.33-106.65l-.13-.13a75.21,75.21,0,0,0-53.5-22.19h-.27a74.88,74.88,0,0,0-53.61,22.56L1123.9,857.55a22,22,0,0,1-31.08.24L978.89,745.88a75.89,75.89,0,0,0-106.53.48l-.22.21A75.69,75.69,0,0,0,872.5,854L984.86,964.79A22,22,0,0,1,985,996L871.58,1109.92a75.8,75.8,0,0,0,.12,106.9l.55.56a75.85,75.85,0,0,0,106.65.39l53.09-52.34a529,529,0,0,1,196.54-169Z"/><path class="cls-2" d="M978.07,1671.82a520.51,520.51,0,0,1-40.29-171.56H666.23a239.77,239.77,0,0,1-240-240V670.31a239.77,239.77,0,0,1,240-240h761.38c41.61,0,75.34,32.89,75.34,74.5s-33.73,74.5-75.34,74.5H666.23c-49.65,0-89,41.4-89,91v589.9c0,49.66,39.32,91,89,91H949.59a524.7,524.7,0,0,1,82.4-185.83l-53.09,52.34a75.85,75.85,0,0,1-106.65-.39l-.55-.56a75.8,75.8,0,0,1-.12-106.9L985,996a22,22,0,0,0-.14-31.19L872.5,854a75.69,75.69,0,0,1-.36-107.38l.22-.21a75.89,75.89,0,0,1,106.53-.48l113.93,111.91a22,22,0,0,0,31.08-.24l110.17-111.73a74.88,74.88,0,0,1,53.61-22.56h.27a75.21,75.21,0,0,1,53.5,22.19l.13.13a75.88,75.88,0,0,1,.33,106.65L1229.28,966.4a22.07,22.07,0,0,0-.75,30.07q14.34-7.12,29.18-13.4a526.29,526.29,0,0,1,647.75,201.64,968.15,968.15,0,0,0,25.07-219.45C1930.53,432.16,1498.36,0,965.26,0S0,432.16,0,965.26s432.16,965.27,965.26,965.27a968.77,968.77,0,0,0,210-22.93,528.28,528.28,0,0,1-197.21-235.78Z"/><path class="cls-2" d="M1327.07,1351.26H1009.24a467.48,467.48,0,0,0-14.48,116q0,16.6,1.15,33h331.16Z"/><path class="cls-2" d="M1254.79,1886.34q12.56,6.21,25.51,11.7A467.78,467.78,0,0,0,1893,1285.3q-4.56-10.79-9.64-21.28C1787.2,1559.89,1552,1793,1254.79,1886.34Z"/><path class="cls-2" d="M1234.07,1217.2l94.13,93.46a45.14,45.14,0,0,1,89.17,10V1481.2a156.47,156.47,0,0,0,15.8-9.75,161.79,161.79,0,0,0,21.92-247.23l-180.6-181.91c-.77-.78-1.57-1.52-2.37-2.26a465.32,465.32,0,0,0-128.72,85.33Z"/><path class="cls-2" d="M1327.07,1320.62a44.85,44.85,0,0,1,1.13-10l-94.13-93.46-90.67-91.82q-5.94,5.55-11.71,11.31a466.66,466.66,0,0,0-122.45,214.57h317.83Z"/><path class="cls-2" d="M1455.09,1224.22a162.47,162.47,0,0,1-21.92,247.23,156.47,156.47,0,0,1-15.8,9.75v132.91a45.15,45.15,0,1,1-90.3,0V1500.26H995.91a468.24,468.24,0,0,0,258.88,386.08C1552,1793,1787.2,1559.89,1883.4,1264a468,468,0,0,0-603.1-227.53c-2.74,1.16-5.46,2.35-8.18,3.56.8.74,1.6,1.48,2.37,2.26Zm52.59,96.4a45.15,45.15,0,0,1,90.3,0v293.49a45.15,45.15,0,0,1-90.3,0Z"/></g></g></svg>