<svg xmlns="http://www.w3.org/2000/svg" viewBox="0 0 1930.53 1934.76"><defs><style>.cls-1{fill:none;}.cls-2{fill:#fff;}.cls-3{fill:#525252;}</style></defs><title>syncingAsset 22</title><g id="Layer_2" data-name="Layer 2"><g id="Layer_1-2" data-name="Layer 1"><path class="cls-1" d="M1228.53,996.47a22.07,22.07,0,0,1,.75-30.07l112.63-114.17a75.88,75.88,0,0,0-.33-106.65l-.13-.13a75.21,75.21,0,0,0-53.5-22.19h-.27a74.88,74.88,0,0,0-53.61,22.56L1123.9,857.55a22,22,0,0,1-31.08.24L978.89,745.88a75.89,75.89,0,0,0-106.53.48l-.22.21A75.69,75.69,0,0,0,872.5,854L984.86,964.79A22,22,0,0,1,985,996L871.58,1109.92a75.8,75.8,0,0,0,.12,106.9l.55.56a75.85,75.85,0,0,0,106.65.39l53.09-52.34a529,529,0,0,1,196.54-169Z"/><path class="cls-1" d="M949.59,1351.26H666.23c-49.65,0-89-41.39-89-91V670.31c0-49.65,39.32-91,89-91h761.38c41.61,0,75.34-32.89,75.34-74.5s-33.73-74.5-75.34-74.5H666.23a239.77,239.77,0,0,0-240,240v589.9a239.77,239.77,0,0,0,240,240H937.78q-1-16.41-1-33A526.1,526.1,0,0,1,949.59,1351.26Z"/><path class="cls-2" d="M978.07,1671.82a520.51,520.51,0,0,1-40.29-171.56H666.23a239.77,239.77,0,0,1-240-240V670.31a239.77,239.77,0,0,1,240-240h761.38c41.61,0,75.34,32.89,75.34,74.5s-33.73,74.5-75.34,74.5H666.23c-49.65,0-89,41.4-89,91v589.9c0,49.66,39.32,91,89,91H949.59a524.7,524.7,0,0,1,82.4-185.83l-53.09,52.34a75.85,75.85,0,0,1-106.65-.39l-.55-.56a75.8,75.8,0,0,1-.12-106.9L985,996a22,22,0,0,0-.14-31.19L872.5,854a75.69,75.69,0,0,1-.36-107.38l.22-.21a75.89,75.89,0,0,1,106.53-.48l113.93,111.91a22,22,0,0,0,31.08-.24l110.17-111.73a74.88,74.88,0,0,1,53.61-22.56h.27a75.21,75.21,0,0,1,53.5,22.19l.13.13a75.88,75.88,0,0,1,.33,106.65L1229.28,966.4a22.07,22.07,0,0,0-.75,30.07q14.34-7.12,29.18-13.4a526.29,526.29,0,0,1,647.75,201.64,968.15,968.15,0,0,0,25.07-219.45C1930.53,432.16,1498.36,0,965.26,0S0,432.16,0,965.26s432.16,965.27,965.26,965.27a968.77,968.77,0,0,0,210-22.93,528.28,528.28,0,0,1-197.21-235.78Z"/><path class="cls-2" d="M1651.44,1650.87a272.84,272.84,0,0,1-44.65,35.63,963.84,963.84,0,0,1-352,199.84q12.56,6.21,25.51,11.7A467.78,467.78,0,0,0,1893,1285.3q-4.56-10.79-9.64-21.28a964,964,0,0,1-195.32,341A264.37,264.37,0,0,1,1651.44,1650.87Z"/><path class="cls-2" d="M1234.07,1217.2l53.93,53.55a262.89,262.89,0,0,1,146.72-67l-160.23-161.39c-.77-.78-1.57-1.52-2.37-2.26a465.32,465.32,0,0,0-128.72,85.33Z"/><path class="cls-2" d="M1228,1351.26H1009.24a467.48,467.48,0,0,0-14.48,116q0,16.6,1.15,33h208.31A263.27,263.27,0,0,1,1228,1351.26Z"/><path class="cls-2" d="M1480.72,1325.62a29.78,29.78,0,0,1,11-40.48l1.44-.8a159.4,159.4,0,0,0-10.41-23.18,205.15,205.15,0,0,0-153.34,50.73l18.72,18.59c1.5,1.51,5.47,5.93,2.49,13.1s-8.64,7.68-10.76,7.68h-45a204.33,204.33,0,0,0-31.86,149h76.81c33.89,0,66.15-9.74,93.28-28.81a163.78,163.78,0,0,0,69.21-131.39C1493.53,1338.88,1485.18,1333.91,1480.72,1325.62Z"/><path class="cls-2" d="M1350.65,1343.58c3-7.17-1-11.59-2.49-13.1l-18.72-18.59c-3.11,2.76-6.17,5.6-9.14,8.57a206.55,206.55,0,0,0-25.36,30.8h45C1342,1351.26,1347.66,1350.76,1350.65,1343.58Z"/><path class="cls-2" d="M1279.09,1279.26q4.38-4.38,8.91-8.51l-53.93-53.55-90.67-91.82q-5.94,5.55-11.71,11.31a466.66,466.66,0,0,0-122.45,214.57H1228A263.06,263.06,0,0,1,1279.09,1279.26Z"/><path class="cls-2" d="M1521.92,1268.22a208.24,208.24,0,0,0-39.14-7.06,159.4,159.4,0,0,1,10.41,23.18Z"/><path class="cls-2" d="M1434.72,1203.7a261.55,261.55,0,0,1,92.36,5.65l-9.57-16.19a29.66,29.66,0,0,1,51.51-29.43l47.83,84.62a29.77,29.77,0,0,1-11,40.47l-84.62,47.83c-5.15,2.21-9.57,3.68-14.72,3.68a31.1,31.1,0,0,1-4.09-.27,163.78,163.78,0,0,1-69.21,131.39c-27.13,19.07-59.39,28.81-93.28,28.81h-76.81a201.83,201.83,0,0,0,25.58,68.92c8.09,14,3.68,32.38-10.31,40.48a26.52,26.52,0,0,1-14.71,4.41,27.91,27.91,0,0,1-25-14.71,262,262,0,0,1-34.4-99.1H995.91a468.24,468.24,0,0,0,258.88,386.08,963.84,963.84,0,0,0,352-199.84,263.89,263.89,0,0,1-142.26,41.63,274.38,274.38,0,0,1-59.61-6.62l11.78,20.6a29.78,29.78,0,0,1-11,40.47c-5.15,2.21-9.57,3.68-14.72,3.68-10.3,0-20.6-5.15-25.75-14.71l-47.83-84.63a28,28,0,0,1,.73-30.17l2.21-4.41c5.89-8.83,14.72-14,24.28-14.72l69.17-39c14.72-8.1,32.38-3.68,40.48,11a29.78,29.78,0,0,1-11,40.47l-25.76,14.72a205.39,205.39,0,0,0,192.8-54.46c66.23-66.22,79.47-168.51,31.64-248.72-8.09-14-3.68-32.38,10.3-40.47s31.64-3.68,39.74,9.57a262.83,262.83,0,0,1-3.83,274.24,964,964,0,0,0,195.32-341,468,468,0,0,0-603.1-227.53c-2.74,1.16-5.46,2.35-8.18,3.56.8.74,1.6,1.48,2.37,2.26Z"/><path class="cls-3" d="M1688.08,1605a970.65,970.65,0,0,1-81.29,81.49,272.84,272.84,0,0,0,44.65-35.63A264.37,264.37,0,0,0,1688.08,1605Z"/></g></g></svg>