<?xml version="1.0" encoding="utf-8"?>
<!-- Generator: Adobe Illustrator 19.0.0, SVG Export Plug-In . SVG Version: 6.00 Build 0)  -->
<svg version="1.1" id="Layer_1" xmlns="http://www.w3.org/2000/svg" xmlns:xlink="http://www.w3.org/1999/xlink" x="0px" y="0px"
	 viewBox="0 0 32 32" style="enable-background:new 0 0 32 32;" xml:space="preserve">
<style type="text/css">
	.st0{fill:#B3B3B3;}
	.st1{fill:#FFFFFF;}
</style>
<g>
	<g id="XMLID_199_">
		<g>
			<path id="XMLID_47_" class="st0" d="M23.8,12v1.3c-4.8,0-8.7,3.9-8.7,8.7c0,0.9,0.1,1.7,0.4,2.5H8.2V12H23.8z"/>
			<path id="XMLID_46_" class="st0" d="M23.8,10.6H8.2c0-4.3,3.5-7.8,7.8-7.8C20.3,2.8,23.8,6.3,23.8,10.6L23.8,10.6z"/>
			<path id="XMLID_45_" class="st0" d="M6.8,12v12.6c-3.5,0-6.3-2.8-6.3-6.3C0.5,14.8,3.3,12,6.8,12L6.8,12z"/>
			<path id="XMLID_44_" class="st0" d="M31.5,18.1c-1.2-2.4-3.5-4.2-6.3-4.6V12C28.6,12,31.4,14.7,31.5,18.1z"/>
		</g>
	</g>
	<path id="XMLID_178_" class="st1" d="M23.8,14.9c-4,0-7.2,3.2-7.2,7.1c0,4,3.2,7.2,7.2,7.2c3.9,0,7.1-3.2,7.1-7.2
		C30.9,18.1,27.7,14.9,23.8,14.9z M26.6,24.4c0.3,0.4,0.2,1-0.2,1.3c-0.4,0.3-1,0.2-1.3-0.2l-1.3-1.8l-1.3,1.8
		c-0.3,0.4-0.9,0.5-1.3,0.2c-0.4-0.3-0.5-0.9-0.2-1.3l1.6-2.3L21,19.7c-0.3-0.4-0.2-1,0.2-1.3c0.4-0.3,1-0.2,1.3,0.2l1.3,1.8
		l1.3-1.8c0.3-0.4,0.9-0.5,1.3-0.2c0.4,0.3,0.5,0.9,0.2,1.3L24.9,22L26.6,24.4z"/>
</g>
</svg>
